<?xml version="1.0" encoding="utf-8"?>
<!-- Generator: Adobe Illustrator 17.0.1, SVG Export Plug-In . SVG Version: 6.00 Build 0)  -->
<!DOCTYPE svg PUBLIC "-//W3C//DTD SVG 1.1//EN" "http://www.w3.org/Graphics/SVG/1.1/DTD/svg11.dtd">
<svg version="1.1" id="svgLogo" xmlns="http://www.w3.org/2000/svg" xmlns:xlink="http://www.w3.org/1999/xlink" x="0px" y="0px"
	 width="1084px" height="280px" viewBox="-59.5 -6.773 1084 280" enable-background="new -59.5 -6.773 1084 280"
	 xml:space="preserve">
<g>
	<path fill="#84B040" d="M0,168.403V46.791h43.268c13.591,0,24.058,3.292,31.148,9.583c7.24,6.331,10.889,15.701,10.889,27.856
		c0,12.211-3.621,21.558-10.861,28.033c-7.243,6.478-17.658,9.714-31.25,9.714H13.176v46.426H0z M13.176,109.287h28.401
		c6.468,0,11.854-0.699,16.159-2.099c4.303-1.4,7.435-3.439,9.393-6.121c1.955-2.682,3.295-5.303,4.006-7.861
		c0.712-2.558,1.069-5.541,1.069-8.934s-0.357-6.374-1.069-8.932s-2.051-5.196-4.006-7.906c-1.958-2.71-5.09-4.766-9.393-6.166
		c-4.305-1.4-9.691-2.099-16.159-2.099H13.176V109.287z"/>
	<path fill="#84B040" d="M99.355,140.448c0-4.09,0.76-7.757,2.269-10.998c1.512-3.241,3.368-5.87,5.564-7.886
		c2.193-2.016,4.986-3.743,8.37-5.171c3.383-1.431,6.379-2.482,8.992-3.153c2.611-0.674,5.711-1.185,9.304-1.535
		c3.591-0.349,6.146-0.555,7.655-0.613c1.514-0.058,3.307-0.089,5.386-0.089l14.602,0.869c0-8.258-2.236-14.151-6.706-17.679
		c-4.477-3.528-11.094-5.29-19.864-5.29c-9.848,0-18.717,1.456-26.605,4.366V80.54c8.957-3.145,18.066-4.718,27.317-4.718
		c12.745,0,22.538,3.292,29.122,9.659c6.584,6.366,10.048,15.954,10.13,28.266v27.332c0,5.817-1.35,10.788-4.047,14.941
		c-2.697,4.125-6.169,7.108-10.403,8.947c-4.242,1.841-8.213,3.112-11.917,3.829s-7.367,1.069-10.98,1.013
		c-2.796,0-5.66-0.175-8.6-0.534c-2.94-0.36-6.27-1.178-9.98-2.459c-3.715-1.279-6.939-2.915-9.669-4.91
		c-2.735-1.99-5.065-4.852-6.997-8.572c-1.975-3.669-3.029-7.974-3.029-12.885h0.086V140.448z M112.534,140.448
		c0,11.396,8.357,16.967,24.817,17.005c0.058,0,0.253,0,0.253,0c16.114,0,24.172-5.49,24.172-16.473v-17.448
		c-4.029-0.712-9.42-1.071-16.174-1.071c-22.08,0.106-33.164,5.931-33.164,17.988h0.096V140.448z"/>
	<path fill="#84B040" d="M188.741,89.434V77.415h15.85V51.686h13.176v25.729h23.5v12.019h-23.5v55.464
		c0,4.558,1.013,7.85,2.786,9.876c1.927,1.773,5.318,2.786,10.13,2.803c3.74,0,7.212-0.712,10.413-2.137v12.376
		c-3.857,1.426-7.716,2.137-11.57,2.026c-0.177,0-0.327,0-0.448,0c-2.434,0-4.804-0.263-7.124-0.798
		c-2.32-0.534-4.928-1.588-7.835-3.16c-2.907-1.573-5.252-4.214-7.032-7.924c-1.78-3.712-2.672-8.294-2.672-13.758V89.434H188.741z"
		/>
	<path fill="#84B040" d="M260.944,168.403V84.592c13.71-5.733,28.431-8.6,44.16-8.6v12.376c-9.945,0.243-20.272,1.816-30.979,4.812
		v75.224L260.944,168.403L260.944,168.403z"/>
	<path fill="#84B040" d="M324.332,168.403h13.173V77.415h-13.173V168.403z"/>
	<path fill="#84B040" d="M360.568,122.732c0-9.238,1.284-17.104,3.852-23.592c2.573-6.488,6.045-11.33,10.416-14.526
		c4.379-3.201,8.848-5.462,13.419-6.799c4.573-1.329,9.585-2.001,15.045-2.001c9.139,0,18.233,1.773,27.096,5.075v12.378
		c-8.253-3.383-16.769-5.075-25.554-5.075c-10.803,0-18.666,2.738-23.589,8.21c-4.928,5.475-7.389,14.25-7.389,26.337
		c0,12.155,2.532,21.019,7.344,26.555c4.926,5.318,12.662,8.104,23.551,8.167c9.139,0,17.661-1.75,25.554-5.252v12.73
		c-8.491,3.264-17.481,4.898-26.975,4.898c-4.275,0-8.266-0.357-11.976-1.069c-3.71-0.714-7.509-2.142-11.396-4.28
		c-3.885-2.145-7.207-4.895-9.952-8.253c-2.748-3.355-5.004-7.891-6.767-13.604c-1.8-5.629-2.636-12.467-2.636-19.899
		L360.568,122.732L360.568,122.732z"/>
	<path fill="#84B040" d="M449.953,168.403V42.785h13.176v79.324l40.865-44.694h17.808l-38.819,41.754l43.803,49.235h-17.539
		l-34.81-39.974l-11.307,12.287v27.687L449.953,168.403L449.953,168.403z"/>
	<path fill="#8E8885" d="M606.021,107.507c0-41.546,18.795-62.319,56.394-62.319c13.457,0,26.083,2.532,38.239,7.546v12.695
		c-11.801-5.245-24.078-7.866-36.823-7.866c-15.415,0-26.709,4.021-33.881,12.064c-7.172,8.04-10.758,20.669-10.758,37.986
		c0,17.22,3.545,29.882,10.636,37.973s18.466,11.902,33.934,11.973c9.719,0,18.998-1.459,27.831-4.381v-38.193h-29.29v-12.73h42.471
		v58.27c-13.108,6.202-27.256,9.304-42.433,9.304c-37.525,0.094-56.343-20.672-56.343-62.322
		C605.998,107.507,606.021,107.507,606.021,107.507z"/>
	<path fill="#8E8885" d="M731.643,168.403V84.592c13.71-5.733,28.431-8.6,44.16-8.6v12.376c-9.947,0.243-20.274,1.816-30.979,4.812
		v75.224L731.643,168.403L731.643,168.403z"/>
	<path fill="#8E8885" d="M788.619,124.066c0-0.122,0-0.329,0-0.623c0-0.296,0-0.534,0-0.712c0-31.282,13.28-46.917,39.839-46.917
		c5.543,0,10.636,0.76,15.194,2.626c4.515,1.773,8.104,3.799,10.636,6.187c2.651,2.279,5.065,5.571,7.091,9.37
		c2.003,3.799,3.545,7.091,4.305,9.75c0.856,2.786,1.519,5.824,2.026,9.704c0.471,3.799,0.76,6.078,0.76,6.944v3.918l-0.355,6.331
		h-66.153c0.831,9.117,3.545,15.701,8.357,19.897c4.758,4.052,11.902,6.078,21.019,6.184c13.186,0,23.569-2.256,31.141-6.767v13.533
		c-8.76,4.214-19.37,6.321-31.852,6.321c-0.175,0-0.362,0-0.539,0c-5.323,0-10.203-0.638-14.64-1.914
		c-4.442-1.276-8.805-3.487-13.092-6.632c-4.29-3.145-7.648-7.876-10.076-14.197c-2.446-6.268-3.695-13.865-3.695-23.002
		L788.619,124.066L788.619,124.066z M801.795,118.991h53.332c0-2.074-0.256-4.389-0.762-6.941c-0.504-2.55-1.517-5.835-3.031-9.841
		s-4.249-7.341-8.2-10.013c-3.958-2.674-8.843-4.006-14.67-4.006c-9.036,0-15.589,2.345-19.666,7.03
		c-4.072,4.809-6.285,12.659-7.045,23.771H801.795z"/>
	<path fill="#8E8885" d="M879.696,77.415h14.067l25.904,72.023l26.263-72.023H960l-37.213,99.776
		c-6.47,17.509-16.025,26.263-28.667,26.263c-2.905,0-5.754-0.534-8.547-1.603v-12.019c2.434,1.013,5.065,1.519,7.85,1.519
		c2.312,0,4.596-0.846,6.853-2.537c2.259-1.692,4.11-3.725,5.564-6.098s2.793-4.779,4.006-7.212c1.216-2.434,2.061-4.51,2.537-6.232
		l0.894-2.492L879.696,77.415z"/>
	<circle fill="#F05656" cx="331.284" cy="51.79" r="9.35"/>
	<circle fill="#F18021" cx="358.451" cy="51.79" r="9.35"/>
	<circle fill="#8E8885" cx="385.617" cy="51.79" r="9.35"/>
	<circle fill="#6687C5" cx="412.784" cy="51.79" r="9.35"/>
	<g>
		<circle fill="#F05656" cx="861.784" cy="196.104" r="9.35"/>
		<circle fill="#F18021" cx="834.617" cy="196.104" r="9.35"/>
		<circle fill="#8E8885" cx="807.451" cy="196.104" r="9.35"/>
		<circle fill="#6687C5" cx="780.284" cy="196.104" r="9.35"/>
	</g>
</g>
</svg>
