<?xml version="1.0" encoding="UTF-8" standalone="no"?>
<!-- Created with Inkscape (http://www.inkscape.org/) -->

<svg
   xmlns:dc="http://purl.org/dc/elements/1.1/"
   xmlns:cc="http://creativecommons.org/ns#"
   xmlns:rdf="http://www.w3.org/1999/02/22-rdf-syntax-ns#"
   xmlns:svg="http://www.w3.org/2000/svg"
   xmlns="http://www.w3.org/2000/svg"
   xmlns:xlink="http://www.w3.org/1999/xlink"
   xmlns:sodipodi="http://sodipodi.sourceforge.net/DTD/sodipodi-0.dtd"
   xmlns:inkscape="http://www.inkscape.org/namespaces/inkscape"
   width="745"
   height="923"
   id="svg2"
   version="1.1"
   inkscape:version="0.48.1 "
   sodipodi:docname="Raindrops sizes.svg">
  <defs
     id="defs4">
    <linearGradient
       id="linearGradient3743">
      <stop
         offset="0"
         style="stop-color: rgb(135, 145, 192); stop-opacity: 1;"
         id="stop3745" />
      <stop
         offset="0.6"
         style="stop-color: rgb(135, 145, 192); stop-opacity: 0.498039;"
         id="stop3747" />
      <stop
         offset="1"
         style="stop-color: rgb(135, 145, 192); stop-opacity: 0;"
         id="stop3749" />
    </linearGradient>
    <linearGradient
       id="linearGradient5403">
      <stop
         offset="0"
         style="stop-color: rgb(135, 145, 192); stop-opacity: 1;"
         id="stop5405" />
      <stop
         offset="0.5"
         style="stop-color: rgb(135, 145, 192); stop-opacity: 0.498039;"
         id="stop3741" />
      <stop
         offset="1"
         style="stop-color: rgb(135, 145, 192); stop-opacity: 0;"
         id="stop5407" />
    </linearGradient>
    <linearGradient
       id="linearGradient3969">
      <stop
         offset="0"
         style="stop-color: rgb(222, 230, 244); stop-opacity: 1;"
         id="stop3971" />
      <stop
         offset="1"
         style="stop-color: rgb(182, 189, 216); stop-opacity: 1;"
         id="stop3973" />
    </linearGradient>
    <radialGradient
       inkscape:collect="always"
       xlink:href="#linearGradient3969"
       id="radialGradient3253"
       gradientUnits="userSpaceOnUse"
       cx="122.228"
       cy="120.579"
       fx="114.263"
       fy="113.277"
       r="23.2335" />
    <linearGradient
       inkscape:collect="always"
       xlink:href="#linearGradient5403"
       id="linearGradient3255"
       gradientUnits="userSpaceOnUse"
       gradientTransform="matrix(0.21073,0,0,0.21073,806.352,-418.475)"
       x1="607.50201"
       y1="266.51599"
       x2="607.50201"
       y2="343.68799" />
    <radialGradient
       inkscape:collect="always"
       xlink:href="#linearGradient3969"
       id="radialGradient3257"
       gradientUnits="userSpaceOnUse"
       gradientTransform="matrix(1,0,0,0.780725,0,25.3228)"
       cx="122.228"
       cy="115.484"
       fx="114.718"
       fy="107.368"
       r="23.2335" />
    <linearGradient
       inkscape:collect="always"
       xlink:href="#linearGradient5403"
       id="linearGradient3259"
       gradientUnits="userSpaceOnUse"
       x1="607.50201"
       y1="266.51599"
       x2="607.50201"
       y2="343.68799" />
    <linearGradient
       inkscape:collect="always"
       xlink:href="#linearGradient5403"
       id="linearGradient3261"
       gradientUnits="userSpaceOnUse"
       gradientTransform="matrix(0.316025,0,0,0.316025,840.744,-155.141)"
       x1="281.25"
       y1="821.35101"
       x2="281.25"
       y2="1016.59" />
    <radialGradient
       inkscape:collect="always"
       xlink:href="#linearGradient3969"
       id="radialGradient3263"
       gradientUnits="userSpaceOnUse"
       gradientTransform="matrix(10.7603,0,0,7.27871,-1109.79,-278.2)"
       cx="122.228"
       cy="113.061"
       fx="114.718"
       fy="104.734"
       r="23.2335" />
    <radialGradient
       inkscape:collect="always"
       xlink:href="#linearGradient3969"
       id="radialGradient4172"
       cx="978.95172"
       cy="-389.8501"
       fx="978.95172"
       fy="-389.8501"
       r="40.878986"
       gradientTransform="matrix(1,0,0,1.5249997,0,206.72066)"
       gradientUnits="userSpaceOnUse" />
    <radialGradient
       inkscape:collect="always"
       xlink:href="#linearGradient3969"
       id="radialGradient4182"
       gradientUnits="userSpaceOnUse"
       gradientTransform="matrix(7.92916,-7.07178e-7,4.58178e-7,5.14938,969.416,-1373.79)"
       cx="97.582298"
       cy="117.939"
       fx="87.037102"
       fy="110.685"
       r="23.2335" />
    <radialGradient
       inkscape:collect="always"
       xlink:href="#linearGradient3969"
       id="radialGradient4184"
       gradientUnits="userSpaceOnUse"
       gradientTransform="matrix(8.65615,-6.23633e-8,3.61832e-8,5.0223,792.911,-1365.47)"
       cx="165.114"
       cy="125.888"
       fx="157.604"
       fy="117.561"
       r="23.2335" />
    <radialGradient
       inkscape:collect="always"
       xlink:href="#linearGradient3969"
       id="radialGradient4190"
       gradientUnits="userSpaceOnUse"
       gradientTransform="matrix(10.7603,0,0,7.27871,-1109.79,-278.2)"
       cx="117.60632"
       cy="108.02664"
       fx="110.09632"
       fy="99.699646"
       r="23.2335" />
    <radialGradient
       inkscape:collect="always"
       xlink:href="#linearGradient3969"
       id="radialGradient4192"
       gradientUnits="userSpaceOnUse"
       gradientTransform="matrix(1,0,0,0.780725,0,25.3228)"
       cx="122.228"
       cy="115.484"
       fx="114.718"
       fy="107.368"
       r="23.2335" />
    <radialGradient
       inkscape:collect="always"
       xlink:href="#linearGradient3969"
       id="radialGradient4194"
       gradientUnits="userSpaceOnUse"
       gradientTransform="matrix(1,0,0,0.780725,0,25.3228)"
       cx="122.228"
       cy="115.484"
       fx="114.718"
       fy="107.368"
       r="23.2335" />
    <linearGradient
       inkscape:collect="always"
       xlink:href="#linearGradient3743"
       id="linearGradient4225"
       gradientUnits="userSpaceOnUse"
       gradientTransform="matrix(1.80538,0,0,1.39633,1019.0398,1214.7789)"
       x1="153.90401"
       y1="-619.22302"
       x2="153.90401"
       y2="-1232.49" />
    <radialGradient
       inkscape:collect="always"
       xlink:href="#linearGradient3969"
       id="radialGradient4251"
       gradientUnits="userSpaceOnUse"
       gradientTransform="matrix(1.8101411,-1.5583889,1.1718994,1.3612171,925.67745,166.04276)"
       cx="166.22482"
       cy="118.39578"
       fx="165.67581"
       fy="105.67278"
       r="23.2335" />
    <radialGradient
       inkscape:collect="always"
       xlink:href="#linearGradient3969"
       id="radialGradient4253"
       gradientUnits="userSpaceOnUse"
       gradientTransform="matrix(2.1185304,1.1031809,-0.65152128,1.2511683,1084.8189,-195.9224)"
       cx="97.240639"
       cy="109.32094"
       fx="85.465836"
       fy="106.96794"
       r="23.2335" />
    <radialGradient
       inkscape:collect="always"
       xlink:href="#linearGradient3969"
       id="radialGradient4362"
       gradientUnits="userSpaceOnUse"
       cx="122.228"
       cy="120.579"
       fx="114.263"
       fy="113.277"
       r="23.2335" />
    <linearGradient
       inkscape:collect="always"
       xlink:href="#linearGradient5403"
       id="linearGradient4364"
       gradientUnits="userSpaceOnUse"
       gradientTransform="matrix(0.21073,0,0,0.21073,806.352,-418.475)"
       x1="607.50201"
       y1="266.51599"
       x2="607.50201"
       y2="343.68799" />
    <radialGradient
       inkscape:collect="always"
       xlink:href="#linearGradient3969"
       id="radialGradient4366"
       gradientUnits="userSpaceOnUse"
       gradientTransform="matrix(1,0,0,0.780725,0,25.3228)"
       cx="122.228"
       cy="115.484"
       fx="114.718"
       fy="107.368"
       r="23.2335" />
    <linearGradient
       inkscape:collect="always"
       xlink:href="#linearGradient5403"
       id="linearGradient4368"
       gradientUnits="userSpaceOnUse"
       x1="607.50201"
       y1="266.51599"
       x2="607.50201"
       y2="343.68799" />
    <linearGradient
       inkscape:collect="always"
       xlink:href="#linearGradient5403"
       id="linearGradient4370"
       gradientUnits="userSpaceOnUse"
       gradientTransform="matrix(0.316025,0,0,0.316025,840.744,-155.141)"
       x1="281.25"
       y1="821.35101"
       x2="281.25"
       y2="1016.59" />
    <radialGradient
       inkscape:collect="always"
       xlink:href="#linearGradient3969"
       id="radialGradient4372"
       gradientUnits="userSpaceOnUse"
       gradientTransform="matrix(10.7603,0,0,7.27871,-1109.79,-278.2)"
       cx="122.228"
       cy="113.061"
       fx="114.718"
       fy="104.734"
       r="23.2335" />
    <linearGradient
       inkscape:collect="always"
       xlink:href="#linearGradient3743"
       id="linearGradient4374"
       gradientUnits="userSpaceOnUse"
       gradientTransform="matrix(1.80538,0,0,1.39633,1019.0398,1214.7789)"
       x1="153.90401"
       y1="-619.22302"
       x2="153.90401"
       y2="-1232.49" />
    <radialGradient
       inkscape:collect="always"
       xlink:href="#linearGradient3969"
       id="radialGradient4376"
       gradientUnits="userSpaceOnUse"
       gradientTransform="matrix(7.92916,-7.07178e-7,4.58178e-7,5.14938,969.416,-1373.79)"
       cx="97.582298"
       cy="117.939"
       fx="87.037102"
       fy="110.685"
       r="23.2335" />
    <radialGradient
       inkscape:collect="always"
       xlink:href="#linearGradient3969"
       id="radialGradient4378"
       gradientUnits="userSpaceOnUse"
       gradientTransform="matrix(8.65615,-6.23633e-8,3.61832e-8,5.0223,792.911,-1365.47)"
       cx="165.114"
       cy="125.888"
       fx="157.604"
       fy="117.561"
       r="23.2335" />
    <radialGradient
       inkscape:collect="always"
       xlink:href="#linearGradient3969"
       id="radialGradient4380"
       gradientUnits="userSpaceOnUse"
       gradientTransform="matrix(1.8101411,-1.5583889,1.1718994,1.3612171,925.67745,166.04276)"
       cx="166.22482"
       cy="118.39578"
       fx="165.67581"
       fy="105.67278"
       r="23.2335" />
    <radialGradient
       inkscape:collect="always"
       xlink:href="#linearGradient3969"
       id="radialGradient4382"
       gradientUnits="userSpaceOnUse"
       gradientTransform="matrix(2.1185304,1.1031809,-0.65152128,1.2511683,1084.8189,-195.9224)"
       cx="97.240639"
       cy="109.32094"
       fx="85.465836"
       fy="106.96794"
       r="23.2335" />
    <radialGradient
       inkscape:collect="always"
       xlink:href="#linearGradient3969"
       id="radialGradient4384"
       gradientUnits="userSpaceOnUse"
       gradientTransform="matrix(10.7603,0,0,7.27871,-1109.79,-278.2)"
       cx="117.60632"
       cy="108.02664"
       fx="110.09632"
       fy="99.699646"
       r="23.2335" />
    <radialGradient
       inkscape:collect="always"
       xlink:href="#linearGradient3969"
       id="radialGradient4386"
       gradientUnits="userSpaceOnUse"
       gradientTransform="matrix(1,0,0,0.780725,0,25.3228)"
       cx="122.228"
       cy="115.484"
       fx="114.718"
       fy="107.368"
       r="23.2335" />
    <radialGradient
       inkscape:collect="always"
       xlink:href="#linearGradient3969"
       id="radialGradient4388"
       gradientUnits="userSpaceOnUse"
       gradientTransform="matrix(1,0,0,0.780725,0,25.3228)"
       cx="122.228"
       cy="115.484"
       fx="114.718"
       fy="107.368"
       r="23.2335" />
    <radialGradient
       inkscape:collect="always"
       xlink:href="#linearGradient3969"
       id="radialGradient4390"
       gradientUnits="userSpaceOnUse"
       gradientTransform="matrix(1,0,0,1.5249997,0,206.72066)"
       cx="978.95172"
       cy="-389.8501"
       fx="978.95172"
       fy="-389.8501"
       r="40.878986" />
  </defs>
  <sodipodi:namedview
     id="base"
     pagecolor="#ffffff"
     bordercolor="#666666"
     borderopacity="1.0"
     inkscape:pageopacity="0.0"
     inkscape:pageshadow="2"
     inkscape:zoom="0.49497475"
     inkscape:cx="213.8992"
     inkscape:cy="386.81265"
     inkscape:document-units="px"
     inkscape:current-layer="layer1-7"
     showgrid="false"
     inkscape:window-width="1366"
     inkscape:window-height="706"
     inkscape:window-x="-8"
     inkscape:window-y="-8"
     inkscape:window-maximized="1" />
  <metadata
     id="metadata7">
    <rdf:RDF>
      <cc:Work
         rdf:about="">
        <dc:format>image/svg+xml</dc:format>
        <dc:type
           rdf:resource="http://purl.org/dc/dcmitype/StillImage" />
        <dc:title></dc:title>
      </cc:Work>
    </rdf:RDF>
  </metadata>
  <g
     inkscape:label="Layer 1"
     inkscape:groupmode="layer"
     id="layer1"
     transform="translate(0,-129.36218)">
    <g
       inkscape:label="Layer 1"
       inkscape:groupmode="layer"
       transform="translate(-773.0335,590.42568)"
       id="layer1-7">
      <g
         id="g4287"
         transform="translate(0.45275884,64.68109)">
        <g
           transform="translate(63.475814,153.81891)"
           id="g3767">
          <g
             id="g3995"
             style="opacity:0.9"
             transform="matrix(0.330005,0,0,0.330005,874.009,-418.903)">
            <path
               id="path3880"
               style="fill:url(#radialGradient4362);fill-opacity:1;fill-rule:evenodd;stroke:none"
               transform="matrix(2.15206,0,0,2.15206,-94.4689,-158.966)"
               d="m 145.46196,120.57859 c 0,12.83151 -10.402,23.23351 -23.23351,23.23351 -12.83152,0 -23.233512,-10.402 -23.233512,-23.23351 0,-12.83151 10.401992,-23.233509 23.233512,-23.233509 12.83151,0 23.23351,10.401999 23.23351,23.233509 z"
               sodipodi:type="arc"
               sodipodi:cy="120.57859"
               sodipodi:cx="122.22845"
               sodipodi:ry="23.233509"
               sodipodi:rx="23.233509" />
            <path
               inkscape:connector-curvature="0"
               id="path3901"
               style="fill:#e8f0f3;fill-opacity:0.22092997;fill-rule:evenodd;stroke:none"
               d="m 211.08,80.2376 c -0.347,0.0475 -0.66,0.2342 -0.866,0.5173 -0.206,0.283 -0.289,0.6378 -0.228,0.9827 0.542,3.0094 0.907,6.0623 0.907,9.1875 0,28.6249 -23.282,51.9059 -51.907,51.9059 -3.125,0 -6.178,-0.364 -9.187,-0.906 -0.682,-0.207 -1.403,0.178 -1.61,0.86 -0.207,0.681 0.178,1.402 0.86,1.609 5.967,2.668 12.547,4.219 19.531,4.219 26.571,0 48.094,-21.523 48.094,-48.094 0,-6.9843 -1.551,-13.5644 -4.219,-19.5314 -0.236,-0.532 -0.8,-0.8394 -1.375,-0.75 l 0,0 z" />
            <path
               inkscape:connector-curvature="0"
               id="path3947"
               style="fill:#ffffff;fill-opacity:0.59883704;fill-rule:evenodd;stroke:none"
               d="m 152.84,66.6278 c -10.996,4.7677 -18.703,15.7294 -18.703,28.4769 0,1.5112 0.122,2.9925 0.331,4.4461 l 9.222,5.2912 c -0.208,-1.449 -0.33,-2.94 -0.33,-4.446 0,-12.7306 7.694,-23.6624 18.666,-28.4403 l -9.186,-5.3279 z" />
          </g>
          <path
             inkscape:connector-curvature="0"
             id="path3961"
             style="fill:url(#linearGradient4364);fill-opacity:1;fill-rule:evenodd;stroke:none"
             d="m 921.531,-410.18 -10.952,5.332 3.517,0.412 c -2.823,2.971 -5.049,7.877 -6.25,13.097 -1.006,4.377 -1.294,8.978 -0.195,12.84 l -0.011,0 c 0.257,0.968 0.621,1.85 1.062,2.65 1.164,2.307 2.368,3.808 3.393,4.899 0.011,0.011 0.021,0.019 0.031,0.031 0.014,0.016 0.027,0.035 0.041,0.051 0.415,0.473 0.849,0.901 1.3,1.299 0.013,0.012 0.028,0.02 0.041,0.031 0.061,0.06 0.139,0.138 0.196,0.196 1.213,1.233 1.753,1.832 1.753,5.105 0,7.029 0,18.192 0,18.192 l 2.939,0 c 0,0 0,-11.163 0,-18.192 0,-0.892 -0.065,-1.686 -0.185,-2.392 1.615,0.705 3.221,1.204 4.651,1.639 1.768,0.538 3.292,1.018 4.187,1.527 0.894,0.508 1.093,0.732 1.093,1.454 l 0,15.661 3.001,0 0,-15.661 c 0,-0.722 0.188,-0.946 1.083,-1.454 0.894,-0.509 2.418,-0.989 4.187,-1.527 1.431,-0.435 3.043,-0.932 4.661,-1.639 -0.121,0.706 -0.186,1.5 -0.186,2.392 0,7.029 0,18.192 0,18.192 l 2.939,0 c 0,0 0,-11.163 0,-18.192 0,-3.273 0.54,-3.872 1.754,-5.105 0.066,-0.067 0.156,-0.157 0.226,-0.227 0.451,-0.398 0.886,-0.826 1.3,-1.299 1.043,-1.098 2.279,-2.61 3.475,-4.981 0.442,-0.8 0.806,-1.682 1.062,-2.65 l -0.02,0 c 1.099,-3.862 0.821,-8.463 -0.186,-12.84 -1.201,-5.22 -3.426,-10.126 -6.249,-13.097 l 3.516,-0.412 -10.952,-5.332 4.28,11.406 0.856,-3.692 c 2.231,2.294 4.561,6.901 5.682,11.777 1.122,4.876 1.11,9.989 -0.454,13.211 -0.862,1.777 -2.344,3.555 -3.65,5.043 -2.446,2.511 -5.814,3.62 -8.931,4.568 -1.752,0.533 -3.39,0.992 -4.785,1.784 -0.395,0.225 -0.771,0.512 -1.114,0.835 -0.343,-0.323 -0.708,-0.61 -1.103,-0.835 -1.395,-0.792 -3.044,-1.251 -4.796,-1.784 -3.132,-0.953 -6.504,-2.072 -8.951,-4.61 -1.298,-1.48 -2.765,-3.24 -3.62,-5.001 -1.563,-3.222 -1.575,-8.335 -0.454,-13.211 1.122,-4.876 3.452,-9.483 5.683,-11.777 l 0.856,3.692 4.279,-11.406 z"
             sodipodi:nodetypes="cccscccsssssssccscssccccsscsccsscccccscccccsscsscsscssccc" />
          <path
             inkscape:connector-curvature="0"
             id="text2775"
             style="font-size:31.64999962px;font-style:normal;font-weight:normal;fill:#000000;fill-opacity:1;stroke:none;font-family:Bitstream Vera Sans"
             d="m 878.313,-315.659 15.007,6.413 0,-2.766 -11.885,-4.93 11.885,-4.884 0,-2.767 -15.007,6.337 0,2.597 z m 41.466,7.233 0,2.673 -14.976,0 c -0.021,-0.669 0.087,-1.313 0.324,-1.932 0.382,-1.02 0.992,-2.024 1.832,-3.013 0.84,-0.989 2.053,-2.133 3.64,-3.431 2.462,-2.02 4.126,-3.619 4.992,-4.799 0.865,-1.18 1.298,-2.295 1.298,-3.346 0,-1.103 -0.394,-2.033 -1.183,-2.79 -0.788,-0.757 -1.815,-1.136 -3.083,-1.136 -1.339,0 -2.411,0.402 -3.214,1.206 -0.804,0.803 -1.211,1.916 -1.221,3.338 l -2.86,-0.294 c 0.196,-2.132 0.933,-3.758 2.21,-4.876 1.278,-1.118 2.994,-1.677 5.147,-1.677 2.174,0 3.895,0.603 5.162,1.809 1.267,1.205 1.901,2.699 1.901,4.482 0,0.906 -0.185,1.798 -0.556,2.673 -0.371,0.876 -0.987,1.798 -1.847,2.767 -0.861,0.968 -2.29,2.297 -4.289,3.987 -1.669,1.401 -2.741,2.352 -3.215,2.852 -0.474,0.499 -0.865,1.002 -1.174,1.507 l 11.112,0 z m 12.549,2.673 0,-16.413 2.489,0 0,2.303 c 0.515,-0.804 1.2,-1.45 2.055,-1.94 0.855,-0.489 1.829,-0.734 2.921,-0.734 1.216,0 2.213,0.252 2.991,0.757 0.778,0.505 1.326,1.211 1.646,2.118 1.298,-1.917 2.988,-2.875 5.069,-2.875 1.628,0 2.88,0.451 3.756,1.352 0.876,0.902 1.313,2.29 1.313,4.165 l 0,11.267 -2.766,0 0,-10.339 c 0,-1.113 -0.09,-1.914 -0.27,-2.403 -0.181,-0.49 -0.508,-0.884 -0.982,-1.183 -0.474,-0.299 -1.03,-0.448 -1.669,-0.448 -1.154,0 -2.112,0.384 -2.875,1.151 -0.762,0.768 -1.143,1.997 -1.143,3.686 l 0,9.536 -2.782,0 0,-10.664 c 0,-1.236 -0.227,-2.163 -0.68,-2.782 -0.454,-0.618 -1.196,-0.927 -2.226,-0.927 -0.783,0 -1.507,0.206 -2.171,0.618 -0.665,0.412 -1.147,1.015 -1.445,1.808 -0.299,0.794 -0.449,1.938 -0.449,3.432 l 0,8.515 -2.782,0 z m 26.398,0 0,-16.413 2.488,0 0,2.303 c 0.515,-0.804 1.201,-1.45 2.056,-1.94 0.855,-0.489 1.829,-0.734 2.921,-0.734 1.216,0 2.212,0.252 2.99,0.757 0.778,0.505 1.327,1.211 1.646,2.118 1.299,-1.917 2.988,-2.875 5.07,-2.875 1.628,0 2.879,0.451 3.755,1.352 0.876,0.902 1.314,2.29 1.314,4.165 l 0,11.267 -2.767,0 0,-10.339 c 0,-1.113 -0.09,-1.914 -0.27,-2.403 -0.18,-0.49 -0.507,-0.884 -0.981,-1.183 -0.474,-0.299 -1.031,-0.448 -1.67,-0.448 -1.154,0 -2.112,0.384 -2.874,1.151 -0.763,0.768 -1.144,1.997 -1.144,3.686 l 0,9.536 -2.782,0 0,-10.664 c 0,-1.236 -0.227,-2.163 -0.68,-2.782 -0.453,-0.618 -1.195,-0.927 -2.225,-0.927 -0.784,0 -1.507,0.206 -2.172,0.618 -0.664,0.412 -1.146,1.015 -1.445,1.808 -0.299,0.794 -0.448,1.938 -0.448,3.432 l 0,8.515 -2.782,0 z"
             sodipodi:nodetypes="cccccccccccssssssssccsssssscsccccccssscssccccssssccccsssscccccccssscssccccssssccccssssccc" />
        </g>
        <g
           transform="translate(63.475814,153.81891)"
           id="g3759">
          <g
             id="g5424"
             style="opacity:0.9"
             transform="matrix(0.330005,0,0,0.330005,748.48,-254.1)">
            <path
               inkscape:connector-curvature="0"
               id="path3857"
               style="fill:url(#radialGradient4366);fill-opacity:1;fill-rule:evenodd;stroke:none"
               transform="matrix(4.30413,0,0,4.30413,22.8719,-405.107)"
               d="m 145.462,120.579 c 0,12.824 -10.409,13.044 -23.234,13.044 -12.824,0 -23.2331,-0.22 -23.2331,-13.044 0,-12.825 10.4091,-23.2339 23.2331,-23.2339 12.825,0 23.234,10.4089 23.234,23.2339 z"
               sodipodi:nodetypes="czssc" />
            <path
               inkscape:connector-curvature="0"
               id="path3991"
               style="fill:#e8f0f3;fill-opacity:0.22092997;fill-rule:evenodd;stroke:none"
               transform="translate(-54.7857,-49.5664)"
               d="m 685.719,113.906 c -0.313,0.047 -0.587,0.234 -0.745,0.508 -0.158,0.273 -0.183,0.604 -0.068,0.899 4.192,11.25 6.625,23.324 6.625,36 0,14.269 -2.932,25.402 -8.437,33.937 -5.502,8.531 -13.552,14.303 -23.094,18.063 -19.103,7.526 -44.345,7.625 -71.969,7.625 -16.523,0 -32.136,-0.086 -46.156,-1.719 -0.538,-0.065 -1.036,0.296 -1.142,0.828 -0.106,0.531 0.214,1.055 0.736,1.203 2.881,0.791 5.87,1.56 9.125,2.125 15.084,2.618 33.395,2.719 53.156,2.719 27.585,0 52.287,-0.373 69.406,-7.125 8.547,-3.371 15.195,-8.181 19.813,-15.344 4.62,-7.166 7.281,-16.86 7.281,-30.187 0,-17.935 -4.95,-34.658 -13.469,-49.032 -0.217,-0.37 -0.639,-0.568 -1.062,-0.5 l 0,0 z" />
            <path
               inkscape:connector-curvature="0"
               id="path4001"
               style="fill:#ffffff;fill-opacity:0.59883704;fill-rule:evenodd;stroke:none"
               d="m 527.108,36.7428 c -19.147,0.5118 -37.111,12.1687 -44.713,31.0694 -0.901,2.2406 -1.604,4.5095 -2.161,6.7894 l 10.519,13.3452 c 0.556,-2.2719 1.263,-4.5567 2.161,-6.7894 7.592,-18.8755 25.519,-30.496 44.637,-31.0368 L 527.108,36.7428 z" />
          </g>
          <path
             id="path3983"
             style="fill:url(#linearGradient4368);fill-opacity:1;fill-rule:evenodd;stroke:none"
             transform="matrix(0.330005,0,0,0.330005,729.16,-270.127)"
             d="M 546.625,37.5625 A 1.7679437,1.7679437 0 0 0 545.78125,37.75 L 493.8125,63.0625 a 1.7679437,1.7679437 0 0 0 0.5625,3.34375 L 507.78125,68 c -12.64855,14.584263 -22.4431,36.72974 -27.875,60.34375 -4.77499,20.75831 -6.15586,42.60938 -1,61.25 a 1.7679437,1.7679437 0 0 0 0.0312,0.59375 c 1.24977,4.71079 3.0086,8.9717 5.15625,12.875 0.0116,0.023 0.0196,0.0395 0.0312,0.0625 8.95889,17.72656 18.58325,25.74884 24.03125,31.28125 2.87155,2.91603 4.70696,4.8286 5.9375,7.875 1.23054,3.0464 1.875,7.42542 1.875,15.09375 l 0,86.3125 a 1.7679437,1.7679437 0 0 0 1.78125,1.78125 l 13.9375,0 a 1.7679437,1.7679437 0 0 0 1.78125,-1.78125 l 0,-86.3125 c -10e-6,-9.77873 -1.72139,-17.08683 -4.375,-22.9375 7.72811,2.11571 15.57937,3.66612 23.15625,4.78125 14.58337,2.14631 28.27539,0.62224 36.65625,2.875 1.9732,0.5304 4.65599,0.97695 6.71875,1.8125 1.03138,0.41778 1.86047,0.92255 2.375,1.4375 0.51453,0.51495 0.73707,0.96383 0.75,1.6875 0.38216,21.38626 0,96.65625 0,96.65625 a 1.7679437,1.7679437 0 0 0 1.78125,1.78125 l 13.9375,0 A 1.7679437,1.7679437 0 0 0 616.25,343.6875 c 0,0 -0.43335,-75.28894 0,-96.65625 0.0137,-0.67477 0.23181,-1.10447 0.75,-1.625 0.51819,-0.52053 1.34734,-1.03783 2.375,-1.46875 2.05531,-0.86184 4.73243,-1.36947 6.65625,-1.84375 8.49056,-2.09316 22.15057,-0.73092 36.71875,-2.875 7.57689,-1.11513 15.42814,-2.66554 23.15625,-4.78125 -2.65361,5.85067 -4.37499,13.15877 -4.375,22.9375 l 0,86.3125 a 1.7679437,1.7679437 0 0 0 1.78125,1.78125 l 13.9375,0 a 1.7679437,1.7679437 0 0 0 1.78125,-1.78125 c 0,0 2e-5,-52.95914 0,-86.3125 0,-7.66833 0.64445,-12.04735 1.875,-15.09375 1.23055,-3.0464 3.06597,-4.95897 5.9375,-7.875 5.50271,-5.58796 15.2732,-13.69844 24.3125,-31.8125 -0.0201,0.0402 0.0348,-0.0749 0.125,-0.25 0.009,-0.0163 0.0229,-0.0152 0.0312,-0.0312 0.19364,-0.37094 0.2989,-0.66284 0.40625,-0.875 1.74635,-3.4513 3.23609,-7.19265 4.3125,-11.25 a 1.7679437,1.7679437 0 0 0 0.0312,-0.375 1.7679437,1.7679437 0 0 0 0.0312,-0.15625 c 5.16633,-18.64808 3.77765,-40.54279 -1,-61.3125 C 729.66185,104.72974 719.86733,82.584264 707.21875,68 L 720.625,66.40625 a 1.7679437,1.7679437 0 0 0 0.5625,-3.34375 L 669.21875,37.75 a 1.7679437,1.7679437 0 0 0 -2.4375,2.21875 l 20.3125,54.125 a 1.7679437,1.7679437 0 0 0 3.375,-0.21875 L 693.75,79.71875 c 9.54658,11.176303 19.43052,31.33908 24.3125,52.5625 5.26,22.86671 4.90891,46.75657 -2.03125,61.5 -3.70201,7.86443 -10.55459,13.34798 -18.15625,17.625 -10.24242,5.76283 -24.0051,8.49088 -37.65625,10.5 -13.42975,1.97653 -26.83302,0.59611 -38.21875,3.15625 -5.18552,1.16599 -9.98994,3.15465 -14.4375,6 -4.45157,-3.16704 -9.56025,-4.77866 -14.53125,-6 -11.38269,-2.79665 -24.83883,-1.18245 -38.25,-3.15625 -13.62401,-2.00512 -27.24896,-5.0254 -37.71875,-10.53125 -7.57673,-3.98445 -14.3061,-10.02182 -18.09375,-17.625 -7.10148,-14.63341 -7.29302,-38.59435 -2.03125,-61.46875 4.88202,-21.22342 14.76593,-41.386198 24.3125,-52.5625 l 3.28125,14.15625 a 1.7679437,1.7679437 0 0 0 3.375,0.21875 l 20.3125,-54.125 A 1.7679437,1.7679437 0 0 0 546.625,37.5625 z"
             sodipodi:type="inkscape:offset"
             inkscape:radius="1.767767"
             inkscape:original="M 546.5625 39.34375 L 494.59375 64.65625 L 511.28125 66.625 C 497.88495 80.720735 487.32315 103.97854 481.625 128.75 C 476.84728 149.52018 475.50345 171.35996 480.71875 189.6875 L 480.65625 189.71875 C 481.87495 194.31242 483.59196 198.48358 485.6875 202.28125 C 494.52546 219.79671 503.82344 227.48695 509.40625 233.15625 C 515.16441 239.00359 517.75 241.84217 517.75 257.375 C 517.74999 290.72836 517.75 343.6875 517.75 343.6875 L 531.6875 343.6875 C 531.6875 343.6875 531.6875 290.72835 531.6875 257.375 C 531.68749 245.81949 529.33798 237.86655 525.84375 231.8125 C 534.63524 234.51827 543.7325 236.17839 552.5 237.46875 C 566.79471 239.57258 580.37309 237.9553 589.375 240.375 C 593.00197 241.34993 600.44654 242.25949 600.53125 247 C 600.9151 268.481 600.53125 343.6875 600.53125 343.6875 L 614.46875 343.6875 C 614.46875 343.6875 614.03322 268.47486 614.46875 247 C 614.56182 242.41102 621.94842 241.27368 625.59375 240.375 C 634.65254 238.14175 648.2053 239.57258 662.5 237.46875 C 671.26751 236.17839 680.36476 234.51827 689.15625 231.8125 C 685.66202 237.86655 683.31251 245.81949 683.3125 257.375 C 683.3125 290.72835 683.3125 343.6875 683.3125 343.6875 L 697.25 343.6875 C 697.25 343.6875 697.25002 290.72836 697.25 257.375 C 697.25 241.84217 699.83563 239.00359 705.59375 233.15625 C 711.22666 227.43607 720.65416 219.66412 729.5625 201.8125 C 729.61046 201.7164 729.67082 201.62794 729.71875 201.53125 C 729.87515 201.23604 730.00456 200.92478 730.15625 200.625 C 731.85002 197.27761 733.2689 193.65243 734.3125 189.71875 L 734.28125 189.71875 C 739.50627 171.38522 738.15528 149.53115 733.375 128.75 C 727.67685 103.97854 717.11509 80.720735 703.71875 66.625 L 720.40625 64.65625 L 668.4375 39.34375 L 688.75 93.46875 L 692.8125 75.96875 C 703.39838 86.856197 714.45843 108.73511 719.78125 131.875 C 725.10409 155.01488 724.8624 179.15638 717.625 194.53125 C 713.70118 202.86688 706.51821 208.56677 698.75 212.9375 C 688.13106 218.91218 674.17592 221.63889 660.46875 223.65625 C 646.76159 225.67361 633.32329 224.31947 622.375 226.78125 C 616.97595 227.99525 612.03523 230.03549 607.5 233.125 C 603.15578 229.7031 597.90473 228.07844 592.625 226.78125 C 581.72597 224.10343 568.23842 225.67361 554.53125 223.65625 C 540.82409 221.63889 527.0395 218.61148 516.25 212.9375 C 508.40615 208.81258 501.36836 202.54736 497.375 194.53125 C 489.9549 179.24129 489.89591 155.01488 495.21875 131.875 C 500.54161 108.73511 511.60162 86.856197 522.1875 75.96875 L 526.25 93.46875 L 546.5625 39.34375 z " />
          <path
             inkscape:connector-curvature="0"
             id="text2802"
             style="font-size:31.64999962px;font-style:normal;font-weight:normal;fill:#000000;fill-opacity:1;stroke:none;font-family:Bitstream Vera Sans"
             d="m 893.32,-129.659 0,-2.597 -15.007,-6.337 0,2.767 11.9,4.884 -11.9,4.93 0,2.766 15.007,-6.413 z m 26.459,7.233 0,2.673 -14.976,0 c -0.021,-0.669 0.087,-1.313 0.324,-1.932 0.382,-1.02 0.992,-2.024 1.832,-3.013 0.84,-0.989 2.053,-2.133 3.64,-3.431 2.462,-2.02 4.126,-3.619 4.992,-4.799 0.865,-1.18 1.298,-2.295 1.298,-3.346 0,-1.103 -0.394,-2.033 -1.183,-2.79 -0.788,-0.757 -1.815,-1.136 -3.083,-1.136 -1.339,0 -2.411,0.402 -3.214,1.206 -0.804,0.803 -1.211,1.916 -1.221,3.338 l -2.86,-0.294 c 0.196,-2.133 0.933,-3.758 2.21,-4.876 1.278,-1.118 2.994,-1.677 5.147,-1.677 2.174,0 3.895,0.603 5.162,1.809 1.267,1.205 1.901,2.699 1.901,4.482 0,0.906 -0.185,1.798 -0.556,2.673 -0.371,0.876 -0.987,1.798 -1.847,2.767 -0.861,0.968 -2.29,2.297 -4.289,3.987 -1.669,1.401 -2.741,2.352 -3.215,2.852 -0.474,0.499 -0.865,1.002 -1.174,1.507 l 11.112,0 z m 12.549,2.673 0,-16.413 2.489,0 0,2.303 c 0.515,-0.804 1.2,-1.45 2.055,-1.94 0.855,-0.489 1.829,-0.734 2.921,-0.734 1.216,0 2.213,0.252 2.991,0.757 0.778,0.505 1.326,1.211 1.646,2.118 1.298,-1.917 2.988,-2.875 5.069,-2.875 1.628,0 2.88,0.451 3.756,1.352 0.876,0.902 1.313,2.29 1.313,4.165 l 0,11.267 -2.766,0 0,-10.339 c 0,-1.113 -0.09,-1.914 -0.27,-2.403 -0.181,-0.49 -0.508,-0.884 -0.982,-1.183 -0.474,-0.299 -1.03,-0.448 -1.669,-0.448 -1.154,0 -2.112,0.384 -2.875,1.151 -0.762,0.768 -1.143,1.997 -1.143,3.686 l 0,9.536 -2.782,0 0,-10.664 c 0,-1.236 -0.227,-2.163 -0.68,-2.782 -0.454,-0.618 -1.196,-0.927 -2.226,-0.927 -0.783,0 -1.507,0.206 -2.171,0.618 -0.665,0.412 -1.147,1.015 -1.445,1.808 -0.299,0.794 -0.449,1.938 -0.449,3.432 l 0,8.515 -2.782,0 z m 26.398,0 0,-16.413 2.488,0 0,2.303 c 0.515,-0.804 1.201,-1.45 2.056,-1.94 0.855,-0.489 1.829,-0.734 2.921,-0.734 1.216,0 2.212,0.252 2.99,0.757 0.778,0.505 1.327,1.211 1.646,2.118 1.299,-1.917 2.988,-2.875 5.07,-2.875 1.628,0 2.879,0.451 3.755,1.352 0.876,0.902 1.314,2.29 1.314,4.165 l 0,11.267 -2.767,0 0,-10.339 c 0,-1.113 -0.09,-1.914 -0.27,-2.403 -0.18,-0.49 -0.507,-0.884 -0.981,-1.183 -0.474,-0.299 -1.031,-0.448 -1.67,-0.448 -1.154,0 -2.112,0.384 -2.874,1.151 -0.763,0.768 -1.144,1.997 -1.144,3.686 l 0,9.536 -2.782,0 0,-10.664 c 0,-1.236 -0.227,-2.163 -0.68,-2.782 -0.453,-0.618 -1.195,-0.927 -2.225,-0.927 -0.784,0 -1.507,0.206 -2.172,0.618 -0.664,0.412 -1.146,1.015 -1.445,1.808 -0.299,0.794 -0.448,1.938 -0.448,3.432 l 0,8.515 -2.782,0 z"
             sodipodi:nodetypes="cccccccccccssssssssccsssssscsccccccssscssccccssssccccsssscccccccssscssccccssssccccssssccc" />
        </g>
        <g
           transform="translate(63.475814,153.81891)"
           id="g3751">
          <path
             inkscape:connector-curvature="0"
             id="path5645"
             style="fill:url(#linearGradient4370);fill-opacity:1;fill-rule:evenodd;stroke:none"
             d="m 827.965,23.9174 c -0.073,3.9961 -0.009,8.3227 0.84,12.6072 0.414,2.8552 0.996,5.6594 1.748,8.3481 0.823,2.9435 1.919,5.8019 3.249,8.5492 7.078,14.6256 14.683,20.8424 19.181,25.4104 4.499,4.5681 6.528,6.7892 6.528,18.9238 0,26.0559 0,67.4349 0,67.4349 l 10.88,0 c 0,0 0,-41.379 0,-67.4349 0,-13.4545 -4.085,-20.7057 -9.116,-26.0086 -3.145,-3.3142 -6.42,-5.3542 -10.2,-10.2301 2.769,0.7123 5.788,1.1034 9.034,1.1034 19.506,0 37.498,-11.1205 49.821,-16.1702 6.161,-2.5249 10.386,-2.8674 11.395,-2.3926 0.505,0.2374 0.971,0.5057 1.64,2.2997 0.669,1.7941 1.217,5.0017 1.217,9.6733 l 0,111.367 10.89,0 0,-111.367 c 0,-4.6716 0.558,-7.8792 1.227,-9.6733 0.669,-1.794 1.135,-2.0623 1.64,-2.2997 1.01,-0.4748 5.224,-0.1323 11.385,2.3926 12.323,5.0497 30.314,16.1702 49.821,16.1702 3.735,0 7.165,-0.5235 10.275,-1.4541 -4.31,6.1263 -7.96,8.2312 -11.441,11.9009 -5.031,5.3028 -9.116,12.554 -9.116,26.0085 0,26.0559 0,67.4349 0,67.4349 l 10.89,0 c 0,0 0,-41.379 0,-67.4349 0,-12.1345 2.017,-14.3557 6.517,-18.9237 4.5,-4.5681 12.1,-10.7849 19.18,-25.4104 1.33,-2.7474 2.43,-5.6058 3.25,-8.5493 1.13,-4.0331 1.87,-8.3133 2.25,-12.6948 0.43,-3.2616 0.42,-6.5326 0.34,-9.5805 -0.21,-8.3326 -1.38,-16.93934 -3.31,-25.32793 -4.45,-19.35197 -12.71,-37.51957 -23.17,-48.53147 l 13.03,-1.5365 -40.599,-19.7797 15.871,42.2819 3.176,-13.6849 c 8.272,8.5055 17.302,25.5355 21.062,43.69477 1.89,9.13263 3.44,18.50433 3.06,27.72043 -0.22,5.2052 -1.52,10.496 -3.98,14.4584 -3.15,5.0752 -7.75,8.5183 -17.285,8.5183 -15.145,-10e-5 -31.913,-9.712 -45.685,-15.3556 -6.887,-2.8218 -13.551,-5.2847 -20.162,-2.176 -1.382,0.65 -2.588,1.6193 -3.671,2.7432 -1.082,-1.1215 -2.291,-2.0942 -3.671,-2.7432 -6.611,-3.1087 -13.265,-0.6458 -20.151,2.176 -13.773,5.6436 -30.551,15.3556 -45.696,15.3556 -9.533,-10e-5 -14.123,-3.4431 -17.273,-8.5183 -1.945,-3.1324 -3.174,-7.0898 -3.682,-11.1893 -0.287,-2.313 -0.335,-4.6523 -0.351,-6.9919 -0.056,-8.5485 1.418,-16.97642 3.104,-25.31765 3.675,-18.17635 12.799,-35.18925 21.069,-43.69475 l 3.166,13.6849 15.871,-42.282 -40.601,19.7797 13.036,1.5366 c -10.466,11.0119 -18.711,29.1795 -23.163,48.53145 -2.031,8.83166 -3.162,17.90725 -3.32,26.64795 z"
             sodipodi:nodetypes="csssssccsscsssssccssssscssccssssssscccccsssssscssssssscccccss" />
          <g
             id="g4038"
             style="opacity:0.9"
             transform="matrix(0.330005,0,0,0.330005,861.833,-179.715)">
            <path
               inkscape:connector-curvature="0"
               id="path5639"
               style="fill:url(#radialGradient4372);fill-opacity:1;fill-rule:evenodd;stroke:none"
               d="m 455.43,625.629 c 0,138 -189.782,-7.753 -250,-7.753 -58.804,0 -250.0004,145.753 -250.0004,7.753 0,-138 111.9999,-250 250.0004,-250 137.999,0 250,112 250,250 z"
               sodipodi:nodetypes="czssc" />
            <path
               inkscape:connector-curvature="0"
               id="path5643"
               style="fill:#ffffff;fill-opacity:0.59883704;fill-rule:evenodd;stroke:none"
               d="m 143.692,424.984 c -45.6981,1.078 -88.5747,25.613 -106.7185,65.394 -2.151,4.716 -3.8282,9.492 -5.158,14.29 l 25.1069,28.089 c 1.3253,-4.782 3.0146,-9.591 5.1579,-14.29 C 80.2,478.738 122.987,454.28 168.617,453.142 l -24.925,-28.158 z" />
            <path
               inkscape:connector-curvature="0"
               id="path3283"
               style="fill:#e8f0f3;fill-opacity:0.21960802;fill-rule:evenodd;stroke:none"
               d="m 441.629,561.895 c -0.565,0.039 -1.09,0.302 -1.46,0.73 -0.369,0.429 -0.553,0.987 -0.509,1.551 1.344,17.576 2.094,36.723 2.094,57.844 0,15.939 -2.771,26.639 -6.719,33.5 -3.827,6.65 -8.91,10.382 -15.719,12.469 -14.31,4.386 -37.923,0.32 -64.625,-9 -26.628,-9.294 -55.783,-23.076 -82.281,-34.688 -26.559,-11.638 -49.165,-21.593 -69.094,-21.593 -19.703,0 -42.047,9.958 -68.531,21.593 -26.419,11.607 -55.5972,25.393 -82.3123,34.688 -26.8009,9.324 -50.48804,12.863 -64.9062,9 -6.5164,-1.746 -12.2955,-3.648 -17.5938,-5.688 -0.9011,-0.337 -1.9166,-0.026 -2.4739,0.759 -0.5572,0.784 -0.5166,1.845 0.0989,2.585 2.6839,3.179 5.7792,5.689 9.2188,7.656 6.9801,3.994 15.54138,5.736 25.37496,5.688 19.68034,-0.097 44.17574,-7.472 69.43754,-17.375 25.2562,-9.901 51.3,-22.28 74.406,-32.219 23.122,-9.946 43.052,-17.531 57.281,-17.531 16.091,0 39.113,9.273 65.438,20.812 26.309,11.532 55.629,25.434 82.937,34.969 27.322,9.54 52.55,14.577 70.344,9.125 8.851,-2.712 15.932,-7.927 20.938,-16.625 5.023,-8.728 7.937,-21.118 7.937,-38.094 0,-20.18 -2.5,-39.761 -7.062,-58.531 -0.241,-1.012 -1.181,-1.701 -2.219,-1.625 z" />
          </g>
          <path
             inkscape:connector-curvature="0"
             id="text2806"
             style="font-size:31.64999962px;font-style:normal;font-weight:normal;fill:#000000;fill-opacity:1;stroke:none;font-family:Bitstream Vera Sans"
             d="m 878.313,196.341 15.007,6.413 0,-2.766 -11.885,-4.93 11.885,-4.884 0,-2.767 -15.007,6.337 0,2.597 z m 26.845,3.972 2.921,-0.248 c 0.217,1.422 0.719,2.491 1.507,3.207 0.788,0.716 1.739,1.074 2.852,1.074 1.339,0 2.473,-0.505 3.4,-1.514 0.927,-1.01 1.391,-2.349 1.391,-4.019 0,-1.586 -0.446,-2.838 -1.337,-3.755 -0.891,-0.917 -2.058,-1.376 -3.501,-1.376 -0.896,0 -1.705,0.204 -2.426,0.611 -0.721,0.407 -1.288,0.935 -1.7,1.584 l -2.612,-0.34 2.195,-11.638 11.266,0 0,2.658 -9.041,0 -1.221,6.09 c 1.36,-0.948 2.787,-1.422 4.281,-1.422 1.978,0 3.648,0.685 5.008,2.055 1.36,1.371 2.04,3.133 2.04,5.286 0,2.05 -0.598,3.823 -1.793,5.317 -1.453,1.834 -3.436,2.751 -5.95,2.751 -2.061,0 -3.743,-0.577 -5.046,-1.731 -1.304,-1.154 -2.048,-2.684 -2.234,-4.59 l 0,0 z m 27.17,5.934 0,-16.413 2.489,0 0,2.303 c 0.515,-0.804 1.2,-1.45 2.055,-1.94 0.855,-0.489 1.829,-0.734 2.921,-0.734 1.216,0 2.213,0.252 2.991,0.757 0.778,0.505 1.326,1.211 1.646,2.118 1.298,-1.917 2.988,-2.875 5.069,-2.875 1.628,0 2.88,0.451 3.756,1.352 0.876,0.902 1.313,2.29 1.313,4.165 l 0,11.267 -2.766,0 0,-10.339 c 0,-1.113 -0.09,-1.914 -0.27,-2.403 -0.181,-0.49 -0.508,-0.884 -0.982,-1.183 -0.474,-0.299 -1.03,-0.448 -1.669,-0.448 -1.154,0 -2.112,0.384 -2.875,1.151 -0.762,0.768 -1.143,1.997 -1.143,3.686 l 0,9.536 -2.782,0 0,-10.664 c 0,-1.236 -0.227,-2.163 -0.68,-2.782 -0.454,-0.618 -1.196,-0.927 -2.226,-0.927 -0.783,0 -1.507,0.206 -2.171,0.618 -0.665,0.412 -1.147,1.015 -1.445,1.808 -0.299,0.794 -0.449,1.938 -0.449,3.432 l 0,8.515 -2.782,0 z m 26.398,0 0,-16.413 2.488,0 0,2.303 c 0.515,-0.804 1.201,-1.45 2.056,-1.94 0.855,-0.489 1.829,-0.734 2.921,-0.734 1.216,0 2.212,0.252 2.99,0.757 0.778,0.505 1.327,1.211 1.646,2.118 1.299,-1.917 2.988,-2.875 5.07,-2.875 1.628,0 2.879,0.451 3.755,1.352 0.876,0.902 1.314,2.29 1.314,4.165 l 0,11.267 -2.767,0 0,-10.339 c 0,-1.113 -0.09,-1.914 -0.27,-2.403 -0.18,-0.49 -0.507,-0.884 -0.981,-1.183 -0.474,-0.299 -1.031,-0.448 -1.67,-0.448 -1.154,0 -2.112,0.384 -2.874,1.151 -0.763,0.768 -1.144,1.997 -1.144,3.686 l 0,9.536 -2.782,0 0,-10.664 c 0,-1.236 -0.227,-2.163 -0.68,-2.782 -0.453,-0.618 -1.195,-0.927 -2.225,-0.927 -0.784,0 -1.507,0.206 -2.172,0.618 -0.664,0.412 -1.146,1.015 -1.445,1.808 -0.299,0.794 -0.448,1.938 -0.448,3.432 l 0,8.515 -2.782,0 z"
             sodipodi:nodetypes="ccccccccccssssssscccccccssscssccccccssscssccccssssccccsssscccccccssscssccccssssccccssssccc" />
        </g>
        <g
           transform="translate(63.475814,153.81891)"
           id="g3890">
          <g
             id="g6748"
             transform="matrix(0.947985,0,0,0.947985,56.2596,-4.54677)">
            <path
               id="path6659"
               style="fill:#ffffff;fill-opacity:1;fill-rule:nonzero;stroke:#000000;stroke-width:5;stroke-linecap:square;stroke-linejoin:miter;stroke-miterlimit:4;stroke-opacity:1;stroke-dasharray:none;stroke-dashoffset:0"
               transform="translate(754.267,-688.041)"
               d="m 9.8994942,120.20498 c 0,14.4494 -11.713552,26.16295 -26.1629502,26.16295 -14.449399,0 -26.162951,-11.71355 -26.162951,-26.16295 0,-14.4494 11.713552,-26.162952 26.162951,-26.162952 14.4493982,0 26.1629502,11.713552 26.1629502,26.162952 z"
               sodipodi:type="arc"
               sodipodi:cy="120.20498"
               sodipodi:cx="-16.263456"
               sodipodi:ry="26.162951"
               sodipodi:rx="26.162951" />
            <path
               inkscape:connector-curvature="0"
               id="text6655"
               style="font-size:39.79999924px;font-style:normal;font-weight:normal;fill:#000000;fill-opacity:1;stroke:none;font-family:Bitstream Vera Sans"
               d="m 724.671,-554.473 10.942,-28.493 4.062,0 11.662,28.493 -4.295,0 -3.324,-8.63 -11.914,0 -3.13,8.63 -4.003,0 z m 8.221,-11.701 9.66,0 -2.974,-7.891 c -0.907,-2.397 -1.581,-4.366 -2.021,-5.908 -0.363,1.827 -0.875,3.641 -1.536,5.442 l -3.129,8.357 z" />
          </g>
          <g
             id="g6700"
             transform="matrix(0.947985,0,0,0.947985,38.9829,8.11635)">
            <path
               id="path6661"
               style="fill:#ffffff;fill-opacity:1;fill-rule:nonzero;stroke:#000000;stroke-width:5;stroke-linecap:square;stroke-linejoin:miter;stroke-miterlimit:4;stroke-opacity:1;stroke-dasharray:none;stroke-dashoffset:0"
               transform="translate(772.492,-506.019)"
               d="m 9.8994942,120.20498 c 0,14.4494 -11.713552,26.16295 -26.1629502,26.16295 -14.449399,0 -26.162951,-11.71355 -26.162951,-26.16295 0,-14.4494 11.713552,-26.162952 26.162951,-26.162952 14.4493982,0 26.1629502,11.713552 26.1629502,26.162952 z"
               sodipodi:type="arc"
               sodipodi:cy="120.20498"
               sodipodi:cx="-16.263456"
               sodipodi:ry="26.162951"
               sodipodi:rx="26.162951" />
            <path
               inkscape:connector-curvature="0"
               id="text6663"
               style="font-size:39.79999924px;font-style:normal;font-weight:normal;fill:#000000;fill-opacity:1;stroke:none;font-family:Bitstream Vera Sans"
               d="m 746.47,-371.568 0,-28.493 10.69,0 c 2.177,0 3.923,0.288 5.238,0.865 1.316,0.577 2.346,1.464 3.091,2.663 0.745,1.198 1.117,2.452 1.117,3.761 0,1.218 -0.33,2.364 -0.991,3.44 -0.661,1.075 -1.659,1.943 -2.993,2.604 1.723,0.506 3.048,1.367 3.975,2.585 0.926,1.218 1.389,2.656 1.389,4.315 0,1.335 -0.282,2.575 -0.845,3.722 -0.564,1.147 -1.26,2.031 -2.09,2.653 -0.829,0.622 -1.869,1.092 -3.119,1.409 -1.25,0.318 -2.783,0.476 -4.597,0.476 l -10.865,0 z m 3.771,-16.52 6.161,0 c 1.672,0 2.87,-0.11 3.596,-0.331 0.959,-0.285 1.681,-0.758 2.167,-1.419 0.486,-0.66 0.729,-1.49 0.729,-2.487 0,-0.946 -0.227,-1.779 -0.68,-2.498 -0.454,-0.719 -1.102,-1.211 -1.944,-1.477 -0.842,-0.266 -2.287,-0.399 -4.334,-0.399 l -5.695,0 0,8.611 z m 0,13.158 7.094,0 c 1.218,0 2.073,-0.045 2.566,-0.136 0.868,-0.156 1.594,-0.415 2.177,-0.778 0.583,-0.362 1.062,-0.89 1.438,-1.584 0.376,-0.693 0.564,-1.493 0.564,-2.4 0,-1.063 -0.273,-1.986 -0.817,-2.77 -0.544,-0.784 -1.299,-1.334 -2.264,-1.652 -0.965,-0.317 -2.355,-0.476 -4.169,-0.476 l -6.589,0 0,9.796 z" />
          </g>
          <g
             id="g6704"
             transform="matrix(0.947985,0,0,0.947985,37.7484,6.1698)">
            <path
               id="path6667"
               style="fill:#ffffff;fill-opacity:1;fill-rule:nonzero;stroke:#000000;stroke-width:5;stroke-linecap:square;stroke-linejoin:miter;stroke-miterlimit:4;stroke-opacity:1;stroke-dasharray:none;stroke-dashoffset:0"
               transform="translate(773.794,-325.903)"
               d="m 9.8994942,120.20498 c 0,14.4494 -11.713552,26.16295 -26.1629502,26.16295 -14.449399,0 -26.162951,-11.71355 -26.162951,-26.16295 0,-14.4494 11.713552,-26.162952 26.162951,-26.162952 14.4493982,0 26.1629502,11.713552 26.1629502,26.162952 z"
               sodipodi:type="arc"
               sodipodi:cy="120.20498"
               sodipodi:cx="-16.263456"
               sodipodi:ry="26.162951"
               sodipodi:rx="26.162951" />
            <path
               inkscape:connector-curvature="0"
               id="text6669"
               style="font-size:39.79999924px;font-style:normal;font-weight:normal;fill:#000000;fill-opacity:1;stroke:none;font-family:Bitstream Vera Sans"
               d="m 766.355,-201.442 3.77,0.953 c -0.79,3.096 -2.212,5.458 -4.266,7.084 -2.054,1.626 -4.564,2.439 -7.531,2.439 -3.071,0 -5.569,-0.625 -7.493,-1.875 -1.924,-1.251 -3.389,-3.061 -4.393,-5.433 -1.004,-2.371 -1.506,-4.917 -1.506,-7.638 0,-2.967 0.567,-5.556 1.701,-7.765 1.133,-2.209 2.747,-3.887 4.839,-5.034 2.093,-1.146 4.396,-1.72 6.91,-1.72 2.85,0 5.248,0.726 7.191,2.177 1.944,1.451 3.298,3.492 4.062,6.122 l -3.712,0.875 c -0.661,-2.073 -1.62,-3.583 -2.877,-4.529 -1.256,-0.945 -2.837,-1.418 -4.742,-1.418 -2.19,0 -4.02,0.524 -5.491,1.574 -1.47,1.049 -2.504,2.459 -3.1,4.227 -0.596,1.769 -0.894,3.593 -0.894,5.472 0,2.423 0.353,4.538 1.06,6.345 0.706,1.808 1.804,3.159 3.294,4.053 1.49,0.894 3.103,1.341 4.839,1.341 2.113,0 3.901,-0.609 5.365,-1.827 1.464,-1.218 2.455,-3.026 2.974,-5.423 l 0,0 z" />
          </g>
          <g
             id="g6713"
             transform="matrix(0.947985,0,0,0.947985,37.4905,40.5858)">
            <path
               id="path6679"
               style="fill:#ffffff;fill-opacity:1;fill-rule:nonzero;stroke:#000000;stroke-width:5;stroke-linecap:square;stroke-linejoin:miter;stroke-miterlimit:4;stroke-opacity:1;stroke-dasharray:none;stroke-dashoffset:0"
               transform="translate(774.066,-91.9032)"
               d="m 9.8994942,120.20498 c 0,14.4494 -11.713552,26.16295 -26.1629502,26.16295 -14.449399,0 -26.162951,-11.71355 -26.162951,-26.16295 0,-14.4494 11.713552,-26.162952 26.162951,-26.162952 14.4493982,0 26.1629502,11.713552 26.1629502,26.162952 z"
               sodipodi:type="arc"
               sodipodi:cy="120.20498"
               sodipodi:cx="-16.263456"
               sodipodi:ry="26.162951"
               sodipodi:rx="26.162951" />
            <path
               inkscape:connector-curvature="0"
               id="text6681"
               style="font-size:39.79999924px;font-style:normal;font-weight:normal;fill:#000000;fill-opacity:1;stroke:none;font-family:Bitstream Vera Sans"
               d="m 747.524,42.5485 0,-28.4934 9.816,0 c 2.215,0 3.906,0.136 5.072,0.4081 1.633,0.3758 3.026,1.0561 4.179,2.0408 1.503,1.2699 2.627,2.8928 3.372,4.8688 0.745,1.976 1.118,4.2338 1.118,6.7735 0,2.1639 -0.253,4.0816 -0.758,5.7531 -0.505,1.6715 -1.153,3.0547 -1.944,4.1496 -0.79,1.0949 -1.655,1.9566 -2.594,2.585 -0.94,0.6284 -2.074,1.1046 -3.402,1.4286 -1.328,0.3239 -2.854,0.4859 -4.577,0.4859 l -10.282,0 z m 3.771,-3.3625 6.084,0 c 1.878,0 3.352,-0.1749 4.421,-0.5248 1.069,-0.3498 1.921,-0.8422 2.556,-1.4771 0.894,-0.8941 1.591,-2.0959 2.089,-3.6054 0.499,-1.5096 0.749,-3.3398 0.749,-5.4907 0,-2.9802 -0.489,-5.2705 -1.468,-6.8707 -0.978,-1.6002 -2.167,-2.6725 -3.566,-3.2167 -1.011,-0.3887 -2.637,-0.5831 -4.879,-0.5831 l -5.986,0 0,21.7685 z" />
          </g>
          <g
             id="g6717"
             transform="matrix(0.947985,0,0,0.947985,408.891,182.111)">
            <path
               id="path6685"
               style="fill:#ffffff;fill-opacity:1;fill-rule:nonzero;stroke:#000000;stroke-width:5;stroke-linecap:square;stroke-linejoin:miter;stroke-miterlimit:4;stroke-opacity:1;stroke-dasharray:none;stroke-dashoffset:0"
               transform="translate(1069.49,-522.041)"
               d="m 9.8994942,120.20498 c 0,14.4494 -11.713552,26.16295 -26.1629502,26.16295 -14.449399,0 -26.162951,-11.71355 -26.162951,-26.16295 0,-14.4494 11.713552,-26.162952 26.162951,-26.162952 14.4493982,0 26.1629502,11.713552 26.1629502,26.162952 z"
               sodipodi:type="arc"
               sodipodi:cy="120.20498"
               sodipodi:cx="-16.263456"
               sodipodi:ry="26.162951"
               sodipodi:rx="26.162951" />
            <path
               inkscape:connector-curvature="0"
               id="text6687"
               style="font-size:39.79999924px;font-style:normal;font-weight:normal;fill:#000000;fill-opacity:1;stroke:none;font-family:Bitstream Vera Sans"
               d="m 1042.75,-388.473 0,-28.493 20.6,0 0,3.362 -16.83,0 0,8.727 15.76,0 0,3.343 -15.76,0 0,9.699 17.49,0 0,3.362 -21.26,0 z" />
          </g>
        </g>
        <g
           id="g4255">
          <path
             inkscape:connector-curvature="0"
             id="path5212"
             style="fill:url(#linearGradient4374);fill-opacity:1;fill-rule:evenodd;stroke:none"
             d="m 1276.7358,-506.18409 0,801.473 -39.93,-12.349 60.14,67.199 60.04,-66.893 -39.93,12.043 0,-801.473 -40.32,0 z"
             sodipodi:nodetypes="cccccccc" />
          <g
             id="g4252"
             style="opacity:0.9"
             transform="matrix(0.326438,0,0,0.326438,650.81081,79.57171)">
            <path
               inkscape:connector-curvature="0"
               id="path4188"
               style="fill:url(#radialGradient4376);fill-opacity:1;fill-rule:evenodd;stroke:none"
               d="m 1973.0862,-770.88641 c -111.3829,88.58755 -398.3143,199.85115 -406.8162,15.17641 0,-179.641 258.6062,-180.18541 406.8162,-98.91541"
               sodipodi:nodetypes="ccc" />
            <path
               inkscape:connector-curvature="0"
               id="path4183"
               style="fill:url(#radialGradient4378);fill-opacity:1;fill-rule:evenodd;stroke:none"
               d="m 1972.5583,-854.76184 c 86.8,0 221.0017,-7.23316 311.8117,7.85084 68.55,11.387 107.74,73.785 107.74,128.669 0,104.082 -142.3,118.662 -230.32,86.587 -73.82,-26.904 -131.1817,-139.22595 -189.2317,-139.22595"
               sodipodi:nodetypes="csssc" />
            <path
               inkscape:connector-curvature="0"
               id="path4200"
               style="fill:#ffffff;fill-opacity:0.59883704;fill-rule:evenodd;stroke:none"
               d="m 1729.69,-838.65 c -33.59,0.792 -65.11,18.828 -78.45,48.071 -1.58,3.467 -2.81,6.978 -3.79,10.505 l 18.46,20.648 c 0.97,-3.515 2.21,-7.05 3.79,-10.504 13.32,-29.205 44.77,-47.185 78.32,-48.022 l -18.33,-20.698 z" />
            <path
               inkscape:connector-curvature="0"
               id="path4212"
               style="fill:#ffffff;fill-opacity:0.59883704;fill-rule:evenodd;stroke:none"
               d="m 2180.03,-826.895 c -36.13,0.852 -70.03,20.252 -84.38,51.706 -1.7,3.729 -3.03,7.505 -4.08,11.3 l 19.85,22.209 c 1.05,-3.781 2.39,-7.584 4.08,-11.299 14.33,-31.413 48.16,-50.752 84.24,-51.652 l -19.71,-22.264 z" />
            <path
               id="path4229"
               style="fill:#e8f0f3;fill-opacity:0.21960802;fill-rule:evenodd;stroke:none"
               transform="translate(233.214,-105.566)"
               d="m 2146.5312,-647.3125 a 3.1625939,3.1625939 0 0 0 -2.8124,3.625 c 0.9701,6.41503 1.625,12.78381 1.625,19 0,27.0134 -9.3879,48.74996 -24.8126,65 -15.4446,16.27114 -36.7623,27.1451 -60.625,33.625 -2.2716,0.61688 -4.8364,1.04384 -7.5,1.65625 a 3.1655665,3.1655665 0 0 0 1.1876,6.21875 c 7.4861,-1.12354 14.8906,-2.47571 22,-4.40625 22.7202,-6.16966 42.4742,-16.44402 56.4687,-31.1875 13.9706,-14.71813 22.4063,-33.91848 22.4063,-58.90625 0,-10.62814 -1.5953,-21.54235 -4.5938,-32.3125 a 3.1625939,3.1625939 0 0 0 -3.3438,-2.3125 z"
               sodipodi:type="inkscape:offset"
               inkscape:radius="3.1622777"
               inkscape:original="M 2146.8438 -644.15625 C 2147.8288 -637.64277 2148.5 -631.12355 2148.5 -624.6875 C 2148.5 -596.93501 2138.7705 -574.31193 2122.8125 -557.5 C 2106.8545 -540.68807 2085.0162 -529.58949 2060.75 -523 C 2058.2665 -522.3256 2055.6583 -521.89497 2053.125 -521.3125 C 2060.5409 -522.4255 2067.8121 -523.77226 2074.75 -525.65625 C 2097.0597 -531.71443 2116.3084 -541.77491 2129.7812 -555.96875 C 2143.2541 -570.16259 2151.3125 -588.39919 2151.3125 -612.6875 C 2151.3125 -623.00061 2149.7714 -633.64086 2146.8438 -644.15625 z " />
            <path
               id="path4248"
               style="fill:#e8f0f3;fill-opacity:0.21960802;fill-rule:evenodd;stroke:none"
               transform="matrix(0.92426421,-0.10046212,0.10046212,0.92426421,376.63606,-29.440408)"
               d="m 1647.7812,-581.59375 a 4.4725832,4.4725832 0 0 0 -1.4374,0.21875 c -29.3538,9.66176 -59.5768,19.29703 -90.4688,26.34375 -27.0475,6.16977 -54.6567,9.61469 -80.8438,9.90625 a 4.4725832,4.4725832 0 0 0 -0.1562,8.9375 c 30.8336,1.56259 64.7323,-1.46122 97.7812,-9 27.5161,-6.27664 52.9373,-16.72818 76.9688,-27.875 a 4.4725832,4.4725832 0 0 0 -1.8438,-8.53125 z"
               sodipodi:type="inkscape:offset"
               inkscape:radius="4.472136"
               inkscape:original="M 1647.75 -577.125 C 1618.3705 -567.45475 1588.0129 -557.75906 1556.875 -550.65625 C 1529.5348 -544.41972 1501.6354 -540.95176 1475.0938 -540.65625 C 1505.4682 -539.11693 1539.0009 -542.11352 1571.6562 -549.5625 C 1598.7055 -555.73267 1623.8448 -566.03677 1647.75 -577.125 z " />
          </g>
          <g
             id="g4241"
             transform="matrix(0.50634317,0.86233207,-0.86233207,0.50634317,745.34745,-1132.7251)">
            <path
               inkscape:connector-curvature="0"
               id="path4268"
               style="opacity:0.9;fill:url(#radialGradient4380);fill-opacity:1;fill-rule:evenodd;stroke:none"
               d="m 1291.4117,110.7107 c 0.8847,-5.36363 40.4196,-68.815182 68.157,-79.776317 59.8067,-23.6347645 91.432,25.100144 38.2161,57.12665 -12.1794,7.329838 -52.9678,11.211513 -76.1841,12.596917 -18.6135,1.1109 -30.4632,11.70407 -30.189,10.05275 z"
               sodipodi:nodetypes="cssss" />
            <path
               inkscape:connector-curvature="0"
               id="path4272"
               style="opacity:0.9;fill:#ffffff;fill-opacity:0.59883704;fill-rule:evenodd;stroke:none"
               d="m 1350.9253,50.837768 c -4.2534,11.005751 -2.6342,23.654101 5.0631,31.906565 0.9123,0.979213 1.886,1.849656 2.8987,2.642559 l 9.1772,-3.21605 c -1.0097,-0.788813 -1.9896,-1.667714 -2.8987,-2.642656 -7.6874,-8.239748 -9.2974,-20.858704 -5.0656,-31.853162 l -9.1747,3.162744 z" />
            <path
               inkscape:connector-curvature="0"
               id="path5471"
               style="opacity:0.9;fill:#e8f0f3;fill-opacity:0.21960802;fill-rule:evenodd;stroke:none"
               d="m 1417.0675,66.517104 c -0.2187,0.01306 -0.4178,0.121108 -0.5517,0.295753 -4.5832,6.004827 -11.2033,11.893768 -20.0857,17.239843 -6.7573,4.066765 -19.9192,6.701446 -34.622,8.773022 -14.6963,2.070922 -30.7309,3.385488 -42.3749,4.080475 -9.3264,0.556576 -16.8508,3.571883 -21.9856,6.151433 -0.1273,0.064 -0.2318,0.16312 -0.3036,0.28563 -0.3265,0.55808 -0.5093,0.92454 -0.7769,1.39758 -0.1698,0.2888 -0.1241,0.65516 0.1077,0.89545 0.235,0.24029 0.5974,0.29546 0.8912,0.13485 0.4635,-0.23892 0.803,-0.43631 1.2665,-0.66306 5.3895,-2.64575 13.2371,-5.668725 22.8605,-6.243255 11.5722,-0.690417 27.5448,-2.010206 42.0909,-4.05991 7.2763,-1.025342 14.2458,-2.2929 20.0661,-3.703113 5.8172,-1.410212 10.4689,-2.930433 13.2077,-4.580251 9.9042,-5.959779 16.6777,-12.467973 20.8725,-18.851795 0.1534,-0.235035 0.1632,-0.536664 0.023,-0.780513 -0.1403,-0.243523 -0.4048,-0.387482 -0.6855,-0.372139 l 0,0 z" />
          </g>
          <g
             id="g4246"
             transform="matrix(0.25326098,-0.96739799,0.96739799,0.25326098,864.78544,1252.7284)">
            <path
               inkscape:connector-curvature="0"
               id="path4266"
               style="opacity:0.9;fill:url(#radialGradient4382);fill-opacity:1;fill-rule:evenodd;stroke:none"
               d="m 1288.3269,105.05869 c 0.4211,1.57905 -13.2665,-7.030526 -31.4784,-9.278705 -13.1196,-1.619785 -29.2162,3.045341 -41.1214,3.140334 -67.1222,0.534705 -57.6849,-96.1483956 0.082,-80.245642 29.2521,8.052899 71.0688,80.949442 72.5182,86.384013 z"
               sodipodi:nodetypes="cssss" />
            <path
               inkscape:connector-curvature="0"
               id="path4270"
               style="opacity:0.9;fill:#ffffff;fill-opacity:0.59883704;fill-rule:evenodd;stroke:none"
               d="m 1228.4518,36.863335 c -6.5703,-9.798929 -17.8559,-15.729721 -29.0332,-14.16538 -1.3253,0.184718 -2.5975,0.481882 -3.8258,0.859431 l -2.6337,9.360871 c 1.2244,-0.375263 2.5058,-0.673978 3.8258,-0.859432 11.1619,-1.562951 22.4196,4.361314 28.9934,14.135596 l 2.6735,-9.331086 z" />
            <path
               inkscape:connector-curvature="0"
               id="path5469"
               style="opacity:0.9;fill:#e8f0f3;fill-opacity:0.21960802;fill-rule:evenodd;stroke:none"
               d="m 1249.4938,91.713874 c -11.6146,-0.142001 -25.214,3.372104 -36.042,3.458284 -3.6887,0.02938 -7.1359,-0.26213 -10.4036,-0.78541 -0.3884,-0.04015 -0.7377,0.221651 -0.8095,0.602605 -0.072,0.380626 0.1599,0.753092 0.5321,0.85592 3.9237,0.851677 8.2262,1.302814 12.9465,1.264947 11.458,-0.09108 27.6297,-4.815939 41.3564,-3.1214 0.3852,0.02383 0.7247,-0.252663 0.7802,-0.635901 0.059,-0.383565 -0.1893,-0.745584 -0.568,-0.83307 -0.9499,-0.159302 -1.9031,-0.360714 -2.9477,-0.489657 -1.5669,-0.193578 -3.1861,-0.296079 -4.8444,-0.316318 z" />
          </g>
          <g
             id="g6308"
             style="opacity:0.9"
             transform="matrix(0.385937,0,0,0.385937,1217.6158,-606.71409)">
            <path
               inkscape:connector-curvature="0"
               id="path6310"
               style="fill:url(#radialGradient4384);fill-opacity:1;fill-rule:evenodd;stroke:none"
               d="m 455.43,625.629 c 0,138 -189.782,-41.179 -250,-41.179 -58.804,0 -250.0004,179.179 -250.0004,41.179 0,-138 111.9999,-250 250.0004,-250 137.999,0 250,112 250,250 z"
               sodipodi:nodetypes="czssc" />
            <path
               inkscape:connector-curvature="0"
               id="path6312"
               style="fill:#ffffff;fill-opacity:0.59883704;fill-rule:evenodd;stroke:none"
               d="m 143.692,424.984 c -45.6981,1.078 -88.5747,25.613 -106.7185,65.394 -2.151,4.716 -3.8282,9.492 -5.158,14.29 l 25.1069,28.089 c 1.3253,-4.782 3.0146,-9.591 5.1579,-14.29 C 80.2,478.738 122.987,454.28 168.617,453.142 l -24.925,-28.158 z" />
            <path
               inkscape:connector-curvature="0"
               id="path6314"
               style="fill:#e8f0f3;fill-opacity:0.21960802;fill-rule:evenodd;stroke:none"
               d="m 436.64,507.079 c -3.891,4.878 -0.358,11.118 -1.255,16.614 0.79,32.348 13.018,71.594 7.97,103.743 -2.202,10.676 -6.742,22.222 -16.82,27.702 -11.359,5.707 -24.62,3.251 -36.268,-0.182 -26.277,-7.604 -58.882,-29.272 -82.314,-42.904 -27.467,-16.818 -53.997,-35.808 -84.19,-47.557 -13.198,-4.24 -27.938,-2.97 -40.32,3.211 -21.016,8.904 -39.547,22.448 -59.18,33.887 -29.3494,18.344 -72.0968,43.381 -105.6456,53.133 -11.93685,3.059 -25.11093,3.785 -36.5897,-1.37 -4.4157,-0.519 -10.6771,-8.802 -13.6849,-2.038 -0.2485,5.726 5.7791,8.897 9.6466,12.118 11.8419,7.941 27.2358,7.918 40.4987,3.984 25.7535,-6.477 61.892,-26.136 84.7039,-39.223 30.067,-18.064 58.79,-38.984 91.615,-51.919 11.071,-3.484 23.312,-2.03 33.639,3.089 21.814,9.08 41.223,22.766 61.464,34.753 29.908,18.735 69.621,44.856 103.897,54.562 12.968,3.232 27.921,3.763 39.399,-4.11 11.826,-8.528 16.878,-23.195 19.18,-37.025 4.429,-24.739 -7.121,-56.606 -8.718,-81.506 -1.157,-12.592 -2.86,-25.134 -5.124,-37.575 -0.307,-0.751 -1.021,-1.484 -1.904,-1.387 z"
               sodipodi:nodetypes="cccccccccccccccccccccccc" />
          </g>
          <g
             id="g6901"
             style="opacity:0.9"
             transform="translate(59.475814,151.81891)">
            <g
               id="g6759"
               transform="matrix(0.482089,0,0,0.482089,886.975,40.214)">
              <path
                 inkscape:connector-curvature="0"
                 id="path6761"
                 style="fill:url(#radialGradient4386);fill-opacity:1;fill-rule:evenodd;stroke:none"
                 transform="matrix(4.30413,0,0,4.30413,22.8719,-405.107)"
                 d="m 145.462,120.579 c 0,12.824 -10.409,13.044 -23.234,13.044 -12.824,0 -23.2331,-0.22 -23.2331,-13.044 0,-12.825 10.4091,-23.2339 23.2331,-23.2339 12.825,0 23.234,10.4089 23.234,23.2339 z"
                 sodipodi:nodetypes="czssc" />
              <path
                 inkscape:connector-curvature="0"
                 id="path6763"
                 style="fill:#e8f0f3;fill-opacity:0.22092997;fill-rule:evenodd;stroke:none"
                 transform="translate(-54.7857,-49.5664)"
                 d="m 685.719,113.906 c -0.313,0.047 -0.587,0.234 -0.745,0.508 -0.158,0.273 -0.183,0.604 -0.068,0.899 4.192,11.25 6.625,23.324 6.625,36 0,14.269 -2.932,25.402 -8.437,33.937 -5.502,8.531 -13.552,14.303 -23.094,18.063 -19.103,7.526 -44.345,7.625 -71.969,7.625 -16.523,0 -32.136,-0.086 -46.156,-1.719 -0.538,-0.065 -1.036,0.296 -1.142,0.828 -0.106,0.531 0.214,1.055 0.736,1.203 2.881,0.791 5.87,1.56 9.125,2.125 15.084,2.618 33.395,2.719 53.156,2.719 27.585,0 52.287,-0.373 69.406,-7.125 8.547,-3.371 15.195,-8.181 19.813,-15.344 4.62,-7.166 7.281,-16.86 7.281,-30.187 0,-17.935 -4.95,-34.658 -13.469,-49.032 -0.217,-0.37 -0.639,-0.568 -1.062,-0.5 l 0,0 z" />
              <path
                 inkscape:connector-curvature="0"
                 id="path6765"
                 style="fill:#ffffff;fill-opacity:0.59883704;fill-rule:evenodd;stroke:none"
                 d="m 527.108,36.7428 c -19.147,0.5118 -37.111,12.1687 -44.713,31.0694 -0.901,2.2406 -1.604,4.5095 -2.161,6.7894 l 10.519,13.3452 c 0.556,-2.2719 1.263,-4.5567 2.161,-6.7894 7.592,-18.8755 25.519,-30.496 44.637,-31.0368 L 527.108,36.7428 z" />
            </g>
            <g
               id="g6785"
               transform="matrix(0.453975,0,0,0.453975,1079.89,69.6692)">
              <path
                 inkscape:connector-curvature="0"
                 id="path6787"
                 style="fill:url(#radialGradient4388);fill-opacity:1;fill-rule:evenodd;stroke:none"
                 transform="matrix(4.30413,0,0,4.30413,22.8719,-405.107)"
                 d="m 145.462,120.579 c 0,12.824 -10.409,13.044 -23.234,13.044 -12.824,0 -23.2331,-0.22 -23.2331,-13.044 0,-12.825 10.4091,-23.2339 23.2331,-23.2339 12.825,0 23.234,10.4089 23.234,23.2339 z"
                 sodipodi:nodetypes="czssc" />
              <path
                 inkscape:connector-curvature="0"
                 id="path6789"
                 style="fill:#e8f0f3;fill-opacity:0.22092997;fill-rule:evenodd;stroke:none"
                 transform="translate(-54.7857,-49.5664)"
                 d="m 685.719,113.906 c -0.313,0.047 -0.587,0.234 -0.745,0.508 -0.158,0.273 -0.183,0.604 -0.068,0.899 4.192,11.25 6.625,23.324 6.625,36 0,14.269 -2.932,25.402 -8.437,33.937 -5.502,8.531 -13.552,14.303 -23.094,18.063 -19.103,7.526 -44.345,7.625 -71.969,7.625 -16.523,0 -32.136,-0.086 -46.156,-1.719 -0.538,-0.065 -1.036,0.296 -1.142,0.828 -0.106,0.531 0.214,1.055 0.736,1.203 2.881,0.791 5.87,1.56 9.125,2.125 15.084,2.618 33.395,2.719 53.156,2.719 27.585,0 52.287,-0.373 69.406,-7.125 8.547,-3.371 15.195,-8.181 19.813,-15.344 4.62,-7.166 7.281,-16.86 7.281,-30.187 0,-17.935 -4.95,-34.658 -13.469,-49.032 -0.217,-0.37 -0.639,-0.568 -1.062,-0.5 l 0,0 z" />
              <path
                 inkscape:connector-curvature="0"
                 id="path6791"
                 style="fill:#ffffff;fill-opacity:0.59883704;fill-rule:evenodd;stroke:none"
                 d="m 527.108,36.7428 c -19.147,0.5118 -37.111,12.1687 -44.713,31.0694 -0.901,2.2406 -1.604,4.5095 -2.161,6.7894 l 10.519,13.3452 c 0.556,-2.2719 1.263,-4.5567 2.161,-6.7894 7.592,-18.8755 25.519,-30.496 44.637,-31.0368 L 527.108,36.7428 z" />
            </g>
          </g>
          <path
             inkscape:connector-curvature="0"
             id="text2810"
             style="font-size:31.64999962px;font-style:normal;font-weight:normal;fill:#000000;fill-opacity:1;stroke:none;font-family:Bitstream Vera Sans"
             d="m 1260.5758,367.40191 0,-2.596 -15.01,-6.337 0,2.767 11.9,4.883 -11.9,4.931 0,2.766 15.01,-6.414 z m 11.84,3.972 2.92,-0.247 c 0.21,1.422 0.72,2.491 1.51,3.207 0.78,0.716 1.73,1.074 2.85,1.074 1.34,0 2.47,-0.505 3.4,-1.515 0.92,-1.009 1.39,-2.349 1.39,-4.018 0,-1.587 -0.45,-2.839 -1.34,-3.756 -0.89,-0.917 -2.06,-1.375 -3.5,-1.375 -0.9,0 -1.71,0.203 -2.43,0.61 -0.72,0.407 -1.28,0.935 -1.7,1.585 l -2.61,-0.34 2.2,-11.638 11.26,0 0,2.658 -9.04,0 -1.22,6.089 c 1.36,-0.947 2.79,-1.421 4.28,-1.421 1.98,0 3.65,0.685 5.01,2.055 1.36,1.37 2.04,3.132 2.04,5.286 0,2.05 -0.6,3.822 -1.79,5.316 -1.46,1.834 -3.44,2.751 -5.95,2.751 -2.06,0 -3.75,-0.577 -5.05,-1.731 -1.3,-1.154 -2.05,-2.684 -2.23,-4.59 l 0,0 z m 27.17,5.935 0,-16.413 2.49,0 0,2.302 c 0.51,-0.803 1.2,-1.45 2.05,-1.939 0.86,-0.49 1.83,-0.734 2.92,-0.734 1.22,0 2.21,0.252 2.99,0.757 0.78,0.505 1.33,1.211 1.65,2.117 1.3,-1.916 2.99,-2.874 5.07,-2.874 1.63,0 2.88,0.45 3.75,1.352 0.88,0.902 1.32,2.29 1.32,4.165 l 0,11.267 -2.77,0 0,-10.34 c 0,-1.112 -0.09,-1.913 -0.27,-2.403 -0.18,-0.489 -0.51,-0.883 -0.98,-1.182 -0.48,-0.299 -1.03,-0.448 -1.67,-0.448 -1.15,0 -2.11,0.383 -2.87,1.151 -0.77,0.768 -1.15,1.996 -1.15,3.686 l 0,9.536 -2.78,0 0,-10.664 c 0,-1.237 -0.23,-2.164 -0.68,-2.782 -0.45,-0.618 -1.2,-0.927 -2.23,-0.927 -0.78,0 -1.5,0.206 -2.17,0.618 -0.66,0.412 -1.14,1.015 -1.44,1.808 -0.3,0.794 -0.45,1.937 -0.45,3.431 l 0,8.516 -2.78,0 z m 26.39,0 0,-16.413 2.49,0 0,2.302 c 0.52,-0.803 1.2,-1.45 2.06,-1.939 0.85,-0.49 1.83,-0.734 2.92,-0.734 1.22,0 2.21,0.252 2.99,0.757 0.78,0.505 1.33,1.211 1.65,2.117 1.29,-1.916 2.98,-2.874 5.07,-2.874 1.62,0 2.88,0.45 3.75,1.352 0.88,0.902 1.31,2.29 1.31,4.165 l 0,11.267 -2.76,0 0,-10.34 c 0,-1.112 -0.09,-1.913 -0.27,-2.403 -0.18,-0.489 -0.51,-0.883 -0.98,-1.182 -0.48,-0.299 -1.03,-0.448 -1.67,-0.448 -1.16,0 -2.12,0.383 -2.88,1.151 -0.76,0.768 -1.14,1.996 -1.14,3.686 l 0,9.536 -2.78,0 0,-10.664 c 0,-1.237 -0.23,-2.164 -0.68,-2.782 -0.46,-0.618 -1.2,-0.927 -2.23,-0.927 -0.78,0 -1.51,0.206 -2.17,0.618 -0.66,0.412 -1.15,1.015 -1.45,1.808 -0.29,0.794 -0.44,1.937 -0.44,3.431 l 0,8.516 -2.79,0 z"
             sodipodi:nodetypes="ccccccccccssssssscccccccssscssccccccssscssccccssssccccsssscccccccssscssccccssssccccssssccc" />
        </g>
        <g
           id="g4174">
          <path
             inkscape:connector-curvature="0"
             id="path6525"
             style="opacity:0.8;fill:url(#radialGradient4390);fill-opacity:1;fill-rule:nonzero;stroke:none"
             d="m 1033.9939,-372.29244 c 0,22.56489 -18.3141,40.87901 -40.87896,40.87901 -22.56489,0 -40.87901,-18.31412 -40.87901,-40.87901 0,-22.56488 35.03847,-62.0058 40.87901,-83.80187 5.84053,21.79607 40.87896,61.23699 40.87896,83.80187 z"
             sodipodi:nodetypes="csscc" />
          <path
             d="m 1024.8567,-377.80853 c -0.187,0.0256 -0.3557,0.12623 -0.4667,0.27877 -0.1111,0.15252 -0.1552,0.34371 -0.1225,0.52957 0.292,1.62172 0.4887,3.26691 0.4887,4.95104 0,15.42564 -12.5464,27.97149 -27.97212,27.97149 -1.68392,0 -3.32917,-0.19615 -4.95071,-0.48822 -0.36758,-0.11153 -0.75607,0.0958 -0.8676,0.46344 -0.11104,0.36699 0.0964,0.75552 0.46344,0.86707 3.21551,1.43777 6.76135,2.27357 10.52499,2.27357 14.3189,0 25.9174,-11.59849 25.9174,-25.91731 0,-3.76376 -0.8359,-7.30971 -2.2736,-10.52526 -0.1273,-0.28668 -0.4311,-0.45233 -0.741,-0.40416 l 0,0 z"
             style="opacity:0.9;fill:#e8f0f3;fill-opacity:0.22092997;fill-rule:evenodd;stroke:none"
             id="path3901-4"
             inkscape:connector-curvature="0" />
          <path
             inkscape:connector-curvature="0"
             id="path6530"
             style="fill:#ff0000;fill-opacity:1;fill-rule:nonzero;stroke:none"
             d="m 993.11494,-474.34658 c -47.04385,0 -85.31836,38.27456 -85.31836,85.3187 0,47.04442 38.27451,85.31836 85.31836,85.31836 47.04466,0 85.31866,-38.27394 85.31866,-85.31836 0,-47.04414 -38.274,-85.3187 -85.31866,-85.3187 z m 0,9.4799 c 41.91516,0 75.83876,33.92393 75.83876,75.8388 0,19.25424 -7.1866,36.81566 -18.989,50.18414 L 942.93127,-445.8774 c 13.36791,-11.8028 30.9301,-18.98928 50.18367,-18.98928 z m -56.87881,25.68442 107.03387,107.03319 c -13.3676,11.80052 -30.9034,18.9597 -50.15506,18.9597 -41.91459,0 -75.83851,-33.92364 -75.83851,-75.83851 0,-19.25386 7.15681,-36.78646 18.9597,-50.15438 z" />
          <path
             d="m 969.24894,-389.05082 c -4.96469,2.15262 -8.44441,7.10184 -8.44441,12.85734 0,0.6823 0.0551,1.35112 0.14944,2.00741 l 4.16375,2.38899 c -0.0939,-0.65423 -0.14899,-1.32742 -0.14899,-2.00738 0,-5.74787 3.47383,-10.68359 8.4277,-12.84081 l -4.14749,-2.40555 z"
             style="opacity:0.9;fill:#ffffff;fill-opacity:0.59883704;fill-rule:evenodd;stroke:none"
             id="path3947-4"
             inkscape:connector-curvature="0" />
        </g>
      </g>
    </g>
  </g>
</svg>
